<svg xmlns="http://www.w3.org/2000/svg" viewBox="0 0 240 240" role="img" aria-label="Yogurt (dahi)">
  <rect width="240" height="240" rx="40" fill="#f3e2d6"/>
  <circle cx="120" cy="126" r="84" fill="#eccfbd"/>
  <ellipse cx="120" cy="206" rx="74" ry="9" fill="#d9b49d"/>
  <!-- clay pot (kunna) -->
  <path d="M58 104c0-6 5-10 12-10h100c7 0 12 4 12 10 0 4-2 7-6 9 8 12 12 26 12 40 0 30-26 50-68 50s-68-20-68-50c0-14 4-28 12-40-4-2-6-5-6-9z" fill="#c6704a" stroke="#173a28" stroke-width="3" stroke-linejoin="round"/>
  <path d="M70 140c30 10 70 10 100 0" fill="none" stroke="#a5532f" stroke-width="4" stroke-linecap="round"/>
  <path d="M74 160c28 9 64 9 92 0" fill="none" stroke="#a5532f" stroke-width="4" stroke-linecap="round" opacity=".6"/>
  <ellipse cx="120" cy="100" rx="58" ry="14" fill="#fffcf4" stroke="#173a28" stroke-width="3"/>
  <path d="M84 98c10-8 22-4 30-8 10-5 20 0 30 6" fill="none" stroke="#e6ddc7" stroke-width="4" stroke-linecap="round"/>
  <path d="M138 96l38-46" stroke="#173a28" stroke-width="3" stroke-linecap="round"/>
  <path d="M170 44c8-8 18-6 20 2s-6 14-14 12z" fill="#e2a93b" stroke="#173a28" stroke-width="3" stroke-linejoin="round"/>
</svg>
